Coordinates
version=1
nRows=17
nColumns=24
inDegrees=yes

Units are S.I. units (second, meters, Newtons, ...)
Angles are in degrees.

endheader
time	pelvis_tilt	pelvis_list	pelvis_rotation	pelvis_tx	pelvis_ty	pelvis_tz	hip_flexion_r	hip_adduction_r	hip_rotation_r	knee_angle_r	ankle_angle_r	subtalar_angle_r	mtp_angle_r	hip_flexion_l	hip_adduction_l	hip_rotation_l	knee_angle_l	ankle_angle_l	subtalar_angle_l	mtp_angle_l	lumbar_extension	lumbar_bending	lumbar_rotation
      1.10816667	     -0.53212267	     -0.20608005	      0.26926655	     -0.11102667	      0.97540658	      0.31418860	    -19.23747914	      2.99324913	     -1.78127456	     -2.71522660	     17.20216846	     -4.58009246	      2.36221713	     22.59900792	      0.68628649	      1.12341394	      4.68830731	     -4.87337246	     -5.80605318	      3.25535532	    -12.83717821	      4.77722070	      8.76274258
      1.11233333	     -0.49623382	     -0.02142771	      0.28139993	     -0.10514255	      0.97477079	      0.31362368	    -19.35381883	      2.74458760	     -2.05502682	     -3.32531625	     17.43604547	     -4.18364678	      2.45488130	     22.58766163	      0.96066130	      1.31791022	      4.36219435	     -5.13774923	     -6.11377703	      3.35085545	    -12.85317408	      4.53988793	      8.74129228
      1.11650000	     -0.46942060	      0.18341020	      0.29091635	     -0.09922643	      0.97417625	      0.31305445	    -19.44459792	      2.47131281	     -2.31523954	     -3.97010501	     17.64389196	     -3.81437041	      2.55866058	     22.59030024	      1.25456221	      1.51763824	      3.96544493	     -5.46594162	     -6.47080161	      3.45019965	    -12.86514429	      4.28125057	      8.71595371
      1.12066667	     -0.44661617	      0.40404486	      0.30434522	     -0.09327830	      0.97362442	      0.31246924	    -19.51611453	      2.18029436	     -2.57373571	     -4.64927819	     17.82878386	     -3.45654779	      2.67435432	     22.60477847	      1.56651670	      1.72395623	      3.49975024	     -5.85360533	     -6.88186309	      3.55206509	    -12.86933451	      4.00542512	      8.67736728
      1.12483333	     -0.43066315	      0.63294087	      0.31896736	     -0.08731145	      0.97311778	      0.31186000	    -19.56209295	      1.87726393	     -2.82479788	     -5.36540937	     17.97686829	     -3.12411396	      2.80745477	     22.63395067	      1.88904511	      1.93942997	      2.97137582	     -6.28828329	     -7.33700703	      3.65853066	    -12.86748930	      3.72425862	      8.63510521
      1.12900000	     -0.41963428	      0.87201773	      0.33540280	     -0.08132059	      0.97264728	      0.31124880	    -19.58907579	      1.56320878	     -3.06220888	     -6.11168012	     18.09028801	     -2.82517181	      2.95735076	     22.67670799	      2.22185186	      2.15195892	      2.38676167	     -6.77426564	     -7.83823276	      3.76604598	    -12.85360845	      3.42431256	      8.58044888
      1.13316667	     -0.41703116	      1.11885112	      0.35353152	     -0.07530965	      0.97221839	      0.31062833	    -19.59052621	      1.23978546	     -3.28900281	     -6.89090727	     18.16476240	     -2.55121746	      3.13015686	     22.73607416	      2.56384634	      2.36844676	      1.75006587	     -7.29552561	     -8.37953668	      3.87503894	    -12.83202593	      3.12010857	      8.52045447
      1.13733333	     -0.42313705	      1.37379826	      0.37453975	     -0.06927769	      0.97182663	      0.30998690	    -19.56628657	      0.90659371	     -3.50285712	     -7.70567412	     18.19605292	     -2.31445529	      3.32718350	     22.81491224	      2.91641476	      2.57538822	      1.06285770	     -7.84182360	     -8.95155168	      3.98221953	    -12.79785636	      2.80778683	      8.45459469
      1.14150000	     -0.43184904	      1.63622086	      0.39611823	     -0.06323202	      0.97147971	      0.30933556	    -19.52255948	      0.56392136	     -3.70802736	     -8.55098919	     18.18088575	     -2.10257816	      3.57030283	     22.89996854	      3.27775832	      2.79281851	      0.34140066	     -8.38866989	     -9.54932394	      4.09348994	    -12.76410121	      2.48932831	      8.38105246
      1.14566667	     -0.45083540	      1.89942741	      0.42202213	     -0.05716415	      0.97117243	      0.30867656	    -19.45452970	      0.22253010	     -3.88367679	     -9.42353327	     18.11487330	     -1.94605413	      3.83480930	     23.00799216	      3.64186874	      2.97914186	     -0.42568626	     -8.95021773	    -10.15989348	      4.19031318	    -12.71184140	      2.16467061	      8.29976086
      1.14983333	     -0.43241258	      2.18477572	      0.47759293	     -0.05105754	      0.97094795	      0.30796594	    -19.43108537	     -0.13355439	     -4.10462294	    -10.28968337	     17.99720947	     -1.79344295	      4.43159542	     23.07864905	      4.04241458	      3.21952810	     -1.22445214	     -9.45701463	    -10.83088777	      4.36970666	    -12.70223929	      1.80303911	      8.22246049
      1.15400000	     -0.50866837	      2.43031077	      0.47029497	     -0.04499949	      0.97068460	      0.30733914	    -19.24400535	     -0.46759884	     -4.16883930	    -11.26103076	     17.80161495	     -1.77904347	      4.72253711	     23.26788165	      4.37504083	      3.32703091	     -2.06300770	     -9.98256970	    -11.36354009	      4.42472800	    -12.58660380	      1.51750947	      8.12720426
      1.15816667	     -0.48521676	      2.71584974	      0.49906114	     -0.03888656	      0.97058353	      0.30665153	    -19.17993287	     -0.83096465	     -4.30177860	    -12.19681218	     17.49583348	     -1.84500954	      9.34163228	     23.33727387	      4.76590409	      3.50897944	     -2.90024606	    -10.44270926	    -12.00594339	      5.07070944	    -12.59312862	      1.16472753	      8.00594852
      1.16233333	     -0.55599064	      2.97414353	      0.52426741	     -0.03276766	      0.97041753	      0.30596524	    -18.98063775	     -1.16965882	     -4.39757611	    -13.19821746	     17.16448981	     -1.84662413	      9.40430846	     23.53192876	      5.12614904	      3.62391086	     -3.79891325	    -10.83564943	    -12.51132243	      5.04474842	    -12.46713395	      0.84573124	      7.93684303
      1.16650000	     -0.58659067	      3.24170675	      0.54886623	     -0.02664701	      0.97034895	      0.30525383	    -18.80527902	     -1.51963234	     -4.48735955	    -14.23249697	     16.81146040	     -1.84515103	      9.57080258	     23.67389509	      5.50177439	      3.78927516	     -4.69615209	    -11.16296152	    -13.12943779	      4.99125734	    -12.40118329	      0.51516427	      7.84345327
      1.17066667	     -0.62978141	      3.50661545	      0.56173430	     -0.02052639	      0.97032287	      0.30456581	    -18.57990805	     -1.86907086	     -4.54433921	    -15.32858394	     16.38567498	     -1.95109990	      9.74069560	     23.82703340	      5.86612775	      3.90184354	     -5.59417890	    -11.45382404	    -13.61872344	      4.93640960	    -12.31806795	      0.19640245	      7.73987820
      1.17483333	     -0.66545728	      3.77107073	      0.57701544	     -0.01440233	      0.97035059	      0.30385034	    -18.34132213	     -2.21963544	     -4.59803042	    -16.45543995	     15.89562972	     -2.05085128	      9.98197866	     23.97088042	      6.23680096	      4.03154490	     -6.50546835	    -11.65166892	    -14.14036714	      4.86073470	    -12.24525783	     -0.12429080	      7.64075337
